<svg width="78" height="80" viewBox="0 0 78 80" fill="none" xmlns="http://www.w3.org/2000/svg">
<path d="M72 13.3333H50.6666V18.6666H72V74.6666H50.6666V79.9999H77.3333V18.6666C77.3333 17.2521 76.7714 15.8955 75.7712 14.8954C74.771 13.8952 73.4144 13.3333 72 13.3333Z" fill="white"/>
<path d="M42.3467 0H5.65333C4.15398 0 2.71603 0.595617 1.65582 1.65582C0.595617 2.71603 0 4.15398 0 5.65333V80H48V5.65333C48 4.15398 47.4044 2.71603 46.3442 1.65582C45.284 0.595617 43.846 0 42.3467 0ZM42.6667 74.6667H34.6667V66.6667H13.3333V74.6667H5.33333V5.65333C5.33333 5.61131 5.34161 5.5697 5.35769 5.53088C5.37377 5.49205 5.39734 5.45677 5.42706 5.42706C5.45677 5.39734 5.49205 5.37377 5.53088 5.35769C5.5697 5.34161 5.61131 5.33333 5.65333 5.33333H42.3467C42.3887 5.33333 42.4303 5.34161 42.4691 5.35769C42.508 5.37377 42.5432 5.39734 42.5729 5.42706C42.6027 5.45677 42.6262 5.49205 42.6423 5.53088C42.6584 5.5697 42.6667 5.61131 42.6667 5.65333V74.6667Z" fill="white"/>
<path d="M10.6667 13.3333H16V18.6666H10.6667V13.3333Z" fill="white"/>
<path d="M21.3333 13.3333H26.6666V18.6666H21.3333V13.3333Z" fill="white"/>
<path d="M32 13.3333H37.3333V18.6666H32V13.3333Z" fill="white"/>
<path d="M10.6667 26.6667H16V32.0001H10.6667V26.6667Z" fill="white"/>
<path d="M21.3333 26.6667H26.6666V32.0001H21.3333V26.6667Z" fill="white"/>
<path d="M32 26.6667H37.3333V32.0001H32V26.6667Z" fill="white"/>
<path d="M10.6667 40H16V45.3333H10.6667V40Z" fill="white"/>
<path d="M21.3333 40H26.6666V45.3333H21.3333V40Z" fill="white"/>
<path d="M32 40H37.3333V45.3333H32V40Z" fill="white"/>
<path d="M10.6667 53.3333H16V58.6666H10.6667V53.3333Z" fill="white"/>
<path d="M21.3333 53.3333H26.6666V58.6666H21.3333V53.3333Z" fill="white"/>
<path d="M32 53.3333H37.3333V58.6666H32V53.3333Z" fill="white"/>
<path d="M50.6666 26.6667H56V32.0001H50.6666V26.6667Z" fill="white"/>
<path d="M61.3333 26.6667H66.6666V32.0001H61.3333V26.6667Z" fill="white"/>
<path d="M50.6666 40H56V45.3333H50.6666V40Z" fill="white"/>
<path d="M61.3333 40H66.6666V45.3333H61.3333V40Z" fill="white"/>
<path d="M50.6666 53.3333H56V58.6666H50.6666V53.3333Z" fill="white"/>
<path d="M61.3333 53.3333H66.6666V58.6666H61.3333V53.3333Z" fill="white"/>
</svg>
