<svg width="31" height="40" viewBox="0 0 31 40" fill="none" xmlns="http://www.w3.org/2000/svg">
<path fill-rule="evenodd" clip-rule="evenodd" d="M15.363 38.3128L16.7972 36.6969C18.4245 34.8331 19.8882 33.0649 21.1906 31.383L22.2656 29.9647C26.7544 23.9167 29 19.1165 29 15.5687C29 7.9956 22.8952 1.85669 15.363 1.85669C7.83089 1.85669 1.72607 7.9956 1.72607 15.5687C1.72607 19.1165 3.97163 23.9167 8.46046 29.9647L9.53551 31.383C11.3934 33.7635 13.3372 36.0735 15.363 38.3128Z" stroke="#5D5D5D" stroke-width="3" stroke-linecap="round" stroke-linejoin="round"/>
<path d="M15.363 21.1757C18.5011 21.1757 21.045 18.6317 21.045 15.4936C21.045 12.3555 18.5011 9.81152 15.363 9.81152C12.2249 9.81152 9.68091 12.3555 9.68091 15.4936C9.68091 18.6317 12.2249 21.1757 15.363 21.1757Z" stroke="#5D5D5D" stroke-width="3" stroke-linecap="round" stroke-linejoin="round"/>
</svg>
