<svg width="36" height="29" viewBox="0 0 36 29" fill="none" xmlns="http://www.w3.org/2000/svg">
<path d="M36 6.36328V23.4003C36.0001 24.7777 35.4738 26.103 34.5289 27.1051C33.584 28.1073 32.2918 28.7105 30.9168 28.7913L30.6 28.8003H5.4C4.02262 28.8004 2.69727 28.2741 1.69513 27.3292C0.692988 26.3842 0.0898065 25.0921 0.00900021 23.7171L0 23.4003V6.36328L17.001 17.6979L17.2098 17.8167C17.4559 17.9369 17.7261 17.9994 18 17.9994C18.2739 17.9994 18.5441 17.9369 18.7902 17.8167L18.999 17.6979L36 6.36328Z" fill="#E8E8E8"/>
<path d="M30.6 0C32.544 0 34.2486 1.026 35.199 2.5686L18 14.0346L0.801025 2.5686C1.25245 1.83568 1.87255 1.2213 2.60962 0.776681C3.34668 0.332061 4.17936 0.0700871 5.03823 0.0125999L5.40003 0H30.6Z" fill="#E8E8E8"/>
</svg>
