<svg width="61" height="53" viewBox="0 0 61 53" fill="none" xmlns="http://www.w3.org/2000/svg">
<path d="M22.525 0H25.2036V9.49701L23.7425 9.86228L21.4291 10.4711L19.481 11.2016L17.4112 12.2974L15.7066 13.6367L14.489 15.0978L13.515 17.0459L12.7844 19.2375L12.2974 21.6727L11.9321 24.9601L11.8104 28.2475L11.6886 28.8563H24.4731V52.477H0V28.6128L0.365269 24.3513L0.974052 20.4551L1.9481 16.5589L2.8004 14.1238L3.77445 11.9321L4.99202 9.61876L6.33134 7.67066L7.79242 5.96607L8.64471 5.11377L10.7146 3.53094L12.9062 2.31337L15.3413 1.33932L17.4112 0.730539L20.0898 0.243513L22.525 0Z" fill="#DB0004"/>
<path d="M58.3214 0.000274658H61V9.49728L59.5389 9.86255L57.2256 10.4713L55.2774 11.2019L53.2076 12.2977L51.6248 13.5152L50.5289 14.7328L49.5549 16.4374L48.8244 18.3855L48.2156 20.8206L47.8503 23.3775L47.485 28.8566H60.1477V52.4773H35.7964V28.3695L36.1617 24.2298L36.8922 19.8466L37.6228 16.9244L38.7186 13.7588L40.1796 10.7148L41.3972 8.64499L42.6148 7.06215L43.9541 5.60107L45.2934 4.38351L47.1198 3.16594L49.1896 2.07013L51.503 1.21784L53.8164 0.609057L56.8603 0.122031L58.3214 0.000274658Z" fill="#DB0004"/>
</svg>
