<svg width="83" height="80" viewBox="0 0 83 80" fill="none" xmlns="http://www.w3.org/2000/svg">
<path d="M28.3333 16.8454V77.201M54.6667 1V61.9608M2 25.8633C2 19.445 2 16.2402 3.72483 14.3678C4.33527 13.7018 5.0779 13.1681 5.90611 12.8003C8.241 11.7726 11.3088 12.7872 17.4445 14.8163C22.1274 16.3665 24.4667 17.1415 26.8367 17.0588C27.7061 17.0305 28.5706 16.9167 29.4174 16.7192C31.7216 16.1749 33.7756 14.8163 37.8836 12.1036L43.949 8.08887C49.2157 4.60539 51.8446 2.86366 54.8642 2.46741C57.8837 2.06246 60.8857 3.05525 66.8853 5.04083L71.9984 6.73031C76.3434 8.16725 78.5159 8.88571 79.7579 10.597C81 12.3082 81 14.5812 81 19.1228V54.5192C81 60.9332 81 64.1423 79.2752 66.0147C78.6639 66.6776 77.9213 67.2083 77.0939 67.5735C74.759 68.6055 71.6912 67.5909 65.5555 65.5618C60.8726 64.0117 58.5333 63.2366 56.1633 63.3193C55.2939 63.3477 54.4294 63.4615 53.5826 63.659C51.2784 64.2033 49.2244 65.5618 45.1164 68.2746L39.051 72.2893C33.7843 75.7728 31.1554 77.5145 28.1358 77.9107C25.1163 78.3157 22.1143 77.3229 16.1147 75.3373L11.0016 73.6478C6.65661 72.2109 4.48411 71.4924 3.24206 69.7812C2 68.0699 2 65.7926 2 61.2554V25.8633Z" stroke="white" stroke-width="3"/>
</svg>
